<svg width="337" height="70" viewBox="0 0 337 70" fill="none" xmlns="http://www.w3.org/2000/svg">
<path d="M22.7807 48.2431C21.3298 47.3459 15.2085 43.5713 15.2085 43.5713C15.2085 43.5713 9.08982 39.79 7.63618 38.8954C7.60435 38.8761 7.56799 38.8654 7.53075 38.8645C7.4935 38.8636 7.45667 38.8725 7.42395 38.8903C7.39123 38.9081 7.36375 38.9342 7.34428 38.966C7.32481 38.9978 7.31402 39.0341 7.313 39.0713C7.29664 39.4095 7.27346 39.914 7.25982 40.195C7.25325 40.3303 7.28797 40.4644 7.35936 40.5795L9.098 43.375C9.18658 43.5181 9.24529 43.6776 9.27059 43.844C9.2959 44.0104 9.28729 44.1802 9.24527 44.3431L8.018 49.1159C7.993 49.21 7.99593 49.3094 8.02644 49.4019C8.05695 49.4944 8.11372 49.576 8.18982 49.6368C8.9418 50.234 9.72963 50.7845 10.5489 51.2854C11.3629 51.7914 12.2072 52.2468 13.0771 52.6491C13.1642 52.6891 13.2612 52.7028 13.356 52.6882C13.4508 52.6737 13.5392 52.6316 13.6103 52.5672L17.2512 49.285C17.3747 49.1731 17.5199 49.0879 17.6778 49.0347C17.8357 48.9814 18.0029 48.9612 18.1689 48.9754L21.4239 49.2604C21.5579 49.2722 21.6922 49.2422 21.8085 49.1745L22.7725 48.6141C22.8044 48.5947 22.8308 48.5675 22.8491 48.535C22.8674 48.5025 22.877 48.4659 22.877 48.4286C22.877 48.3913 22.8674 48.3547 22.8491 48.3222C22.8308 48.2897 22.8044 48.2625 22.7725 48.2431" fill="#7159C1"/>
<path d="M12.502 54.3391C12.4704 54.1508 12.3949 53.9726 12.2817 53.8189C12.1684 53.6651 12.0206 53.5402 11.8502 53.4541C10.8807 52.9646 10.1089 52.4996 9.89749 52.3632C9.68612 52.2268 8.92249 51.7496 8.04567 51.1005C7.89292 50.9868 7.7152 50.9112 7.52734 50.8801C7.33947 50.8491 7.14689 50.8634 6.96567 50.9218L6.7543 50.99C6.03127 51.227 5.37853 51.6402 4.85485 52.1922C4.33116 52.7442 3.95296 53.4178 3.7543 54.1523L0.0179411 67.8432C-0.00996716 67.9409 -0.00521254 68.045 0.031482 68.1397C0.0681765 68.2345 0.134804 68.3146 0.221233 68.368C0.307662 68.4214 0.409165 68.4452 0.510308 68.4356C0.611451 68.426 0.706702 68.3837 0.781577 68.315L11.1248 58.7014C11.683 58.1807 12.104 57.5303 12.3504 56.8078C12.5969 56.0854 12.6611 55.3133 12.5375 54.56L12.502 54.3391Z" fill="#7159C1"/>
<path d="M48.1102 12.6497C48.19 12.568 48.2529 12.4714 48.2951 12.3653C48.3373 12.2593 48.358 12.1459 48.3561 12.0318C48.3542 11.9176 48.3297 11.805 48.284 11.7004C48.2383 11.5958 48.1722 11.5013 48.0897 11.4224C47.871 11.2486 47.6105 11.1353 47.3343 11.0938L40.9075 10.1092C40.6144 10.0648 40.3147 10.1018 40.0412 10.2163C39.7677 10.3308 39.5311 10.5183 39.357 10.7583L35.8511 15.5624C35.6044 15.9002 35.4953 16.3192 35.5459 16.7344C35.5965 17.1497 35.8031 17.5301 36.1238 17.7988C36.1452 17.8158 36.1603 17.8394 36.1667 17.866C36.1731 17.8926 36.1705 17.9205 36.1592 17.9454C36.148 17.9703 36.1287 17.9907 36.1045 18.0034C36.0803 18.0161 36.0526 18.0204 36.0257 18.0156L34.2529 17.7428L31.8175 17.3692C31.4842 17.3187 31.1434 17.3608 30.8325 17.4909C30.5215 17.621 30.2523 17.8341 30.0543 18.1069L19.8052 32.1524C19.7415 32.2402 19.6471 32.3009 19.5408 32.3224C19.4344 32.3439 19.3239 32.3245 19.2311 32.2683L9.37066 26.2451C9.21534 26.1506 9.04254 26.0883 8.86261 26.0621C8.68267 26.0359 8.49929 26.0463 8.32346 26.0926C8.14763 26.139 7.98296 26.2203 7.83931 26.3318C7.69567 26.4433 7.576 26.5826 7.48748 26.7415C7.31738 27.0643 7.27773 27.4401 7.37669 27.7913C7.47565 28.1425 7.70568 28.4423 8.01929 28.6288L8.27429 28.7842C8.33625 28.8223 8.38559 28.8778 8.41616 28.9437C8.44672 29.0097 8.45714 29.0832 8.44611 29.1551L8.14611 31.1624C8.13943 31.2066 8.12198 31.2485 8.09531 31.2844C8.06863 31.3202 8.03354 31.349 7.99313 31.3681C7.95272 31.3873 7.90822 31.3962 7.86356 31.3941C7.8189 31.3919 7.77545 31.3789 7.73702 31.356L6.29429 30.4888C6.01677 30.3169 5.70785 30.2019 5.38549 30.1505C5.06313 30.0991 4.73377 30.1123 4.41655 30.1893C4.09933 30.2663 3.80059 30.4056 3.5377 30.5991C3.27481 30.7926 3.05301 31.0365 2.8852 31.3165C2.57957 31.8176 2.45825 32.4096 2.54213 32.9906C2.62601 33.5715 2.90985 34.105 3.34475 34.4992C3.37202 34.5238 3.62702 34.7228 3.69248 34.7638L11.0561 39.3251C12.2376 40.1355 13.6475 40.5463 15.0794 40.4972C16.5112 40.4481 17.8897 39.9418 19.0129 39.0524C19.4374 38.5924 20.0145 38.3024 20.6368 38.2362C21.2592 38.1699 21.8844 38.3321 22.3961 38.6924C22.677 38.8624 22.9991 38.9523 23.3275 38.9523C23.6558 38.9523 23.9779 38.8624 24.2588 38.6924L26.0929 37.5933C26.3583 37.4342 26.6622 37.3509 26.9716 37.3523C27.281 37.3538 27.5841 37.4399 27.8479 37.6015L33.4388 41.0106C33.5453 41.0745 33.6719 41.096 33.7935 41.0707C33.915 41.0454 34.0226 40.9753 34.0948 40.8742L47.7775 22.176C48.8916 20.676 48.0666 19.9438 47.3888 19.7638C47.3452 19.7542 47.3029 19.7406 47.2525 19.7338L43.9811 19.2265C43.9181 19.2153 43.8587 19.189 43.808 19.1499C43.7573 19.1108 43.7169 19.06 43.6901 19.0018C43.6633 18.9437 43.651 18.8799 43.6541 18.816C43.6573 18.7521 43.6759 18.6898 43.7084 18.6347C44.8184 17.1183 48.1061 12.6442 48.1061 12.6442" fill="#7159C1"/>
<path d="M69.2916 16.728C78.6036 16.728 83.2597 20.104 83.2597 26.856C83.2597 28.936 82.7316 30.744 81.6756 32.28C80.6516 33.784 79.2436 35.048 77.4516 36.072L87.4356 51H76.9236L69.6756 38.52H67.3236V51H58.0596V16.728H69.2916ZM69.1476 23.736H67.3236V31.56H69.0516C70.4596 31.56 71.6116 31.256 72.5076 30.648C73.4356 30.008 73.8996 28.888 73.8996 27.288C73.8996 26.168 73.5316 25.304 72.7956 24.696C72.0596 24.056 70.8436 23.736 69.1476 23.736ZM115.36 37.656C115.36 42.104 114.176 45.528 111.808 47.928C109.44 50.296 106.192 51.48 102.064 51.48C99.504 51.48 97.232 50.952 95.248 49.896C93.264 48.808 91.696 47.24 90.544 45.192C89.424 43.112 88.864 40.6 88.864 37.656C88.864 33.272 90.048 29.896 92.416 27.528C94.784 25.16 98.048 23.976 102.208 23.976C104.768 23.976 107.024 24.504 108.976 25.56C110.96 26.616 112.512 28.168 113.632 30.216C114.784 32.232 115.36 34.712 115.36 37.656ZM98.176 37.656C98.176 39.928 98.48 41.672 99.088 42.888C99.696 44.072 100.72 44.664 102.16 44.664C103.568 44.664 104.56 44.072 105.136 42.888C105.744 41.672 106.048 39.928 106.048 37.656C106.048 35.384 105.744 33.672 105.136 32.52C104.56 31.368 103.552 30.792 102.112 30.792C100.736 30.792 99.728 31.368 99.088 32.52C98.48 33.672 98.176 35.384 98.176 37.656ZM132.675 51.48C128.643 51.48 125.427 50.392 123.027 48.216C120.627 46.04 119.427 42.584 119.427 37.848C119.427 34.616 120.035 31.992 121.251 29.976C122.467 27.928 124.115 26.424 126.195 25.464C128.307 24.472 130.707 23.976 133.395 23.976C135.027 23.976 136.563 24.152 138.003 24.504C139.475 24.856 140.835 25.352 142.083 25.992L139.395 32.76C138.307 32.28 137.283 31.896 136.323 31.608C135.395 31.32 134.419 31.176 133.395 31.176C132.019 31.176 130.899 31.72 130.035 32.808C129.171 33.896 128.739 35.56 128.739 37.8C128.739 40.104 129.171 41.752 130.035 42.744C130.931 43.704 132.067 44.184 133.443 44.184C134.755 44.184 136.067 43.976 137.379 43.56C138.723 43.144 139.987 42.568 141.171 41.832V49.128C140.083 49.832 138.851 50.408 137.475 50.856C136.099 51.272 134.499 51.48 132.675 51.48ZM155.67 14.52V28.872C155.67 29.96 155.622 31.16 155.526 32.472C155.43 33.784 155.302 34.984 155.142 36.072H155.334C155.686 35.528 156.134 34.84 156.678 34.008C157.254 33.176 157.75 32.488 158.166 31.944L164.118 24.456H174.342L165.126 35.736L174.918 51H164.454L158.646 41.496L155.67 43.752V51H146.454V14.52H155.67ZM190.046 23.976C193.918 23.976 196.974 24.984 199.214 27C201.454 29.016 202.574 32.056 202.574 36.12V40.2H186.206C186.27 41.576 186.782 42.712 187.742 43.608C188.734 44.504 190.158 44.952 192.014 44.952C193.678 44.952 195.198 44.792 196.574 44.472C197.95 44.152 199.374 43.64 200.846 42.936V49.512C199.566 50.184 198.158 50.68 196.622 51C195.118 51.32 193.214 51.48 190.91 51.48C188.222 51.48 185.822 51.016 183.71 50.088C181.63 49.128 179.982 47.64 178.766 45.624C177.55 43.608 176.942 41.032 176.942 37.896C176.942 34.696 177.486 32.072 178.574 30.024C179.694 27.976 181.23 26.456 183.182 25.464C185.166 24.472 187.454 23.976 190.046 23.976ZM190.382 30.216C189.294 30.216 188.382 30.552 187.646 31.224C186.942 31.896 186.526 32.968 186.398 34.44H194.27C194.238 33.256 193.886 32.264 193.214 31.464C192.574 30.632 191.63 30.216 190.382 30.216ZM220.774 44.232C221.606 44.232 222.358 44.152 223.03 43.992C223.734 43.8 224.454 43.576 225.19 43.32V49.992C224.198 50.408 223.142 50.76 222.022 51.048C220.902 51.336 219.478 51.48 217.75 51.48C216.022 51.48 214.502 51.208 213.19 50.664C211.91 50.12 210.902 49.192 210.166 47.88C209.43 46.536 209.062 44.664 209.062 42.264V31.32H205.846V27.576L209.926 24.696L212.278 19.128H218.278V24.456H224.806V31.32H218.278V41.64C218.278 43.368 219.11 44.232 220.774 44.232ZM246.068 31.32H240.404V51H231.236V31.32H227.732V26.808L231.428 24.552V24.12C231.428 20.696 232.132 18.2 233.54 16.632C234.948 15.064 237.252 14.28 240.452 14.28C241.828 14.28 243.076 14.392 244.196 14.616C245.316 14.808 246.484 15.112 247.7 15.528L245.732 21.48C245.284 21.352 244.772 21.24 244.196 21.144C243.652 21.048 243.06 21 242.42 21C241.076 21 240.404 21.912 240.404 23.736V24.456H246.068V31.32ZM258.836 51H249.668V14.52H258.836V51ZM269.844 13.752C271.156 13.752 272.292 14.024 273.252 14.568C274.244 15.112 274.74 16.2 274.74 17.832C274.74 19.4 274.244 20.472 273.252 21.048C272.292 21.592 271.156 21.864 269.844 21.864C268.5 21.864 267.348 21.592 266.388 21.048C265.46 20.472 264.996 19.4 264.996 17.832C264.996 16.2 265.46 15.112 266.388 14.568C267.348 14.024 268.5 13.752 269.844 13.752ZM274.404 24.456V51H265.236V24.456H274.404ZM286.413 37.464L278.301 24.456H288.717L292.749 31.896L296.877 24.456H307.293L298.989 37.464L307.629 51H297.213L292.749 42.936L288.285 51H277.869L286.413 37.464Z" fill="#7159C1"/>
</svg>
