<svg width="316" height="70" viewBox="0 0 316 70" fill="none" xmlns="http://www.w3.org/2000/svg">
<path d="M21.4015 48.2431C20.0384 47.3459 14.2877 43.5713 14.2877 43.5713C14.2877 43.5713 8.53945 39.79 7.17382 38.8954C7.14392 38.8761 7.10976 38.8654 7.07477 38.8645C7.03978 38.8636 7.00518 38.8725 6.97444 38.8903C6.94369 38.9081 6.91788 38.9342 6.89959 38.966C6.8813 38.9978 6.87117 39.0341 6.8702 39.0713C6.85483 39.4095 6.83305 39.914 6.82024 40.195C6.81407 40.3303 6.84669 40.4644 6.91376 40.5795L8.54714 43.375C8.63035 43.5181 8.68551 43.6776 8.70928 43.844C8.73306 44.0104 8.72497 44.1802 8.6855 44.3431L7.53252 49.1159C7.50903 49.21 7.51179 49.3094 7.54045 49.4019C7.56911 49.4944 7.62244 49.576 7.69394 49.6368C8.40039 50.234 9.14053 50.7845 9.91021 51.2854C10.6749 51.7914 11.4681 52.2468 12.2853 52.6491C12.3672 52.6891 12.4583 52.7028 12.5473 52.6882C12.6364 52.6737 12.7194 52.6316 12.7862 52.5672L16.2067 49.285C16.3228 49.1731 16.4592 49.0879 16.6075 49.0347C16.7559 48.9814 16.9129 48.9612 17.0689 48.9754L20.1268 49.2604C20.2527 49.2722 20.3789 49.2422 20.4881 49.1745L21.3938 48.6141C21.4238 48.5947 21.4486 48.5675 21.4658 48.535C21.483 48.5025 21.492 48.4659 21.492 48.4286C21.492 48.3913 21.483 48.3547 21.4658 48.3222C21.4486 48.2897 21.4238 48.2625 21.3938 48.2431" fill="white"/>
<path d="M11.7452 54.3391C11.7154 54.1508 11.6445 53.9726 11.5381 53.8189C11.4317 53.6651 11.2929 53.5402 11.1328 53.4541C10.2219 52.9646 9.49685 52.4996 9.29829 52.3632C9.09972 52.2268 8.38231 51.7496 7.55858 51.1005C7.41508 50.9868 7.24812 50.9112 7.07163 50.8801C6.89513 50.8491 6.71422 50.8634 6.54396 50.9218L6.3454 50.99C5.66613 51.227 5.05291 51.6402 4.56093 52.1922C4.06895 52.7442 3.71365 53.4178 3.52702 54.1523L0.0168549 67.8432C-0.00936374 67.9409 -0.00489697 68.045 0.0295761 68.1397C0.0640491 68.2345 0.126643 68.3146 0.207839 68.368C0.289036 68.4214 0.384393 68.4452 0.479414 68.4356C0.574434 68.426 0.663918 68.3837 0.73426 68.315L10.4513 58.7014C10.9757 58.1807 11.3712 57.5303 11.6027 56.8078C11.8342 56.0854 11.8946 55.3133 11.7785 54.56L11.7452 54.3391Z" fill="white"/>
<path d="M45.1976 12.6497C45.2726 12.568 45.3316 12.4714 45.3713 12.3653C45.4109 12.2593 45.4304 12.1459 45.4286 12.0318C45.4269 11.9176 45.4038 11.805 45.3609 11.7004C45.3179 11.5958 45.2559 11.5013 45.1784 11.4224V11.4224C44.9729 11.2486 44.7282 11.1353 44.4687 11.0938L38.4309 10.1092C38.1556 10.0648 37.874 10.1018 37.6171 10.2163C37.3602 10.3308 37.1378 10.5183 36.9743 10.7583L33.6807 15.5624C33.4489 15.9002 33.3464 16.3192 33.3939 16.7344C33.4415 17.1497 33.6356 17.5301 33.9369 17.7988C33.957 17.8158 33.9712 17.8394 33.9772 17.866C33.9832 17.8926 33.9807 17.9205 33.9701 17.9454C33.9595 17.9703 33.9415 17.9907 33.9187 18.0034C33.896 18.0161 33.8699 18.0204 33.8447 18.0156L32.1793 17.7428L29.8912 17.3692C29.5781 17.3187 29.258 17.3608 28.9659 17.4909C28.6737 17.621 28.4208 17.8341 28.2348 18.1069L18.6062 32.1524C18.5464 32.2402 18.4577 32.3009 18.3578 32.3224C18.2579 32.3439 18.154 32.3245 18.0669 32.2683L8.80336 26.2451C8.65745 26.1506 8.49511 26.0883 8.32607 26.0621C8.15702 26.0359 7.98475 26.0463 7.81956 26.0926C7.65437 26.139 7.49967 26.2203 7.36472 26.3318C7.22977 26.4433 7.11735 26.5826 7.03419 26.7415C6.87439 27.0643 6.83713 27.4401 6.93011 27.7913C7.02308 28.1425 7.23918 28.4423 7.53381 28.6288L7.77337 28.7842C7.83157 28.8223 7.87793 28.8778 7.90664 28.9437C7.93536 29.0097 7.94515 29.0832 7.93479 29.1551L7.65295 31.1624C7.64667 31.2066 7.63028 31.2485 7.60522 31.2844C7.58016 31.3202 7.54719 31.349 7.50923 31.3681C7.47126 31.3873 7.42946 31.3962 7.3875 31.3941C7.34555 31.3919 7.30472 31.3789 7.26862 31.356L5.91324 30.4888C5.65252 30.3169 5.3623 30.2019 5.05946 30.1505C4.75661 30.0991 4.44719 30.1123 4.14917 30.1893C3.85116 30.2663 3.57051 30.4056 3.32353 30.5991C3.07655 30.7926 2.86818 31.0365 2.71054 31.3165C2.42341 31.8176 2.30943 32.4096 2.38824 32.9906C2.46704 33.5715 2.73369 34.105 3.14226 34.4992C3.16788 34.5238 3.40744 34.7228 3.46894 34.7638L10.3868 39.3251C11.4967 40.1355 12.8213 40.5463 14.1665 40.4972C15.5116 40.4481 16.8067 39.9418 17.8619 39.0524C18.2606 38.5924 18.8028 38.3024 19.3875 38.2362C19.9721 38.1699 20.5595 38.3321 21.0402 38.6924C21.3042 38.8624 21.6067 38.9523 21.9152 38.9523C22.2237 38.9523 22.5263 38.8624 22.7902 38.6924L24.5133 37.5933C24.7626 37.4342 25.048 37.3509 25.3387 37.3523C25.6294 37.3538 25.9141 37.4399 26.162 37.6015L31.4144 41.0106C31.5144 41.0745 31.6334 41.096 31.7476 41.0707C31.8618 41.0454 31.9629 40.9753 32.0306 40.8742L44.885 22.176C45.9317 20.676 45.1566 19.9438 44.5199 19.7638C44.4789 19.7542 44.4392 19.7406 44.3918 19.7338L41.3185 19.2265C41.2593 19.2153 41.2035 19.189 41.1559 19.1499C41.1083 19.1108 41.0702 19.06 41.0451 19.0018C41.0199 18.9437 41.0083 18.8799 41.0113 18.816C41.0143 18.7521 41.0318 18.6898 41.0623 18.6347C42.1051 17.1183 45.1938 12.6442 45.1938 12.6442" fill="white"/>
<path d="M66.0004 16.728C75.3125 16.728 79.9685 20.104 79.9685 26.856C79.9685 28.936 79.4405 30.744 78.3844 32.28C77.3604 33.784 75.9524 35.048 74.1605 36.072L84.1444 51H73.6325L66.3844 38.52H64.0324V51H54.7684V16.728H66.0004ZM65.8565 23.736H64.0324V31.56H65.7604C67.1684 31.56 68.3204 31.256 69.2164 30.648C70.1444 30.008 70.6084 28.888 70.6084 27.288C70.6084 26.168 70.2404 25.304 69.5044 24.696C68.7684 24.056 67.5525 23.736 65.8565 23.736ZM112.069 37.656C112.069 42.104 110.885 45.528 108.517 47.928C106.149 50.296 102.901 51.48 98.7728 51.48C96.2128 51.48 93.9408 50.952 91.9568 49.896C89.9728 48.808 88.4048 47.24 87.2528 45.192C86.1328 43.112 85.5728 40.6 85.5728 37.656C85.5728 33.272 86.7568 29.896 89.1248 27.528C91.4928 25.16 94.7568 23.976 98.9168 23.976C101.477 23.976 103.733 24.504 105.685 25.56C107.669 26.616 109.221 28.168 110.341 30.216C111.493 32.232 112.069 34.712 112.069 37.656ZM94.8848 37.656C94.8848 39.928 95.1888 41.672 95.7968 42.888C96.4048 44.072 97.4288 44.664 98.8688 44.664C100.277 44.664 101.269 44.072 101.845 42.888C102.453 41.672 102.757 39.928 102.757 37.656C102.757 35.384 102.453 33.672 101.845 32.52C101.269 31.368 100.261 30.792 98.8208 30.792C97.4448 30.792 96.4368 31.368 95.7968 32.52C95.1888 33.672 94.8848 35.384 94.8848 37.656ZM129.383 51.48C125.351 51.48 122.135 50.392 119.735 48.216C117.335 46.04 116.135 42.584 116.135 37.848C116.135 34.616 116.743 31.992 117.959 29.976C119.175 27.928 120.823 26.424 122.903 25.464C125.015 24.472 127.415 23.976 130.103 23.976C131.735 23.976 133.271 24.152 134.711 24.504C136.183 24.856 137.543 25.352 138.791 25.992L136.103 32.76C135.015 32.28 133.991 31.896 133.031 31.608C132.103 31.32 131.127 31.176 130.103 31.176C128.727 31.176 127.607 31.72 126.743 32.808C125.879 33.896 125.447 35.56 125.447 37.8C125.447 40.104 125.879 41.752 126.743 42.744C127.639 43.704 128.775 44.184 130.151 44.184C131.463 44.184 132.775 43.976 134.087 43.56C135.431 43.144 136.695 42.568 137.879 41.832V49.128C136.791 49.832 135.559 50.408 134.183 50.856C132.807 51.272 131.207 51.48 129.383 51.48ZM152.378 28.872C152.378 29.96 152.33 31.16 152.234 32.472C152.138 33.784 152.01 34.984 151.85 36.072H152.042C152.394 35.528 152.842 34.84 153.386 34.008C153.962 33.176 154.458 32.488 154.874 31.944L160.826 24.456H171.05L161.834 35.736L171.626 51H161.162L155.354 41.496L152.378 43.752V51H143.162V14.52H152.378V28.872ZM186.755 23.976C190.627 23.976 193.683 24.984 195.923 27C198.163 29.016 199.283 32.056 199.283 36.12V40.2H182.915C182.979 41.576 183.491 42.712 184.451 43.608C185.443 44.504 186.867 44.952 188.723 44.952C190.387 44.952 191.907 44.792 193.283 44.472C194.659 44.152 196.083 43.64 197.555 42.936V49.512C196.275 50.184 194.867 50.68 193.331 51C191.827 51.32 189.923 51.48 187.619 51.48C184.931 51.48 182.531 51.016 180.419 50.088C178.339 49.128 176.691 47.64 175.475 45.624C174.259 43.608 173.651 41.032 173.651 37.896C173.651 34.696 174.195 32.072 175.283 30.024C176.403 27.976 177.939 26.456 179.891 25.464C181.875 24.472 184.163 23.976 186.755 23.976ZM187.091 30.216C186.003 30.216 185.091 30.552 184.355 31.224C183.651 31.896 183.235 32.968 183.107 34.44H190.979C190.947 33.256 190.595 32.264 189.923 31.464C189.283 30.632 188.339 30.216 187.091 30.216ZM217.483 44.232C218.315 44.232 219.067 44.152 219.739 43.992C220.443 43.8 221.163 43.576 221.899 43.32V49.992C220.907 50.408 219.851 50.76 218.731 51.048C217.611 51.336 216.187 51.48 214.459 51.48C212.731 51.48 211.211 51.208 209.899 50.664C208.619 50.12 207.611 49.192 206.875 47.88C206.139 46.536 205.771 44.664 205.771 42.264V31.32H202.555V27.576L206.635 24.696L208.987 19.128H214.987V24.456H221.515V31.32H214.987V41.64C214.987 43.368 215.819 44.232 217.483 44.232ZM242.777 31.32H237.113V51H227.945V31.32H224.441V26.808L228.137 24.552V24.12C228.137 20.696 228.841 18.2 230.249 16.632C231.657 15.064 233.961 14.28 237.161 14.28C238.537 14.28 239.785 14.392 240.905 14.616C242.025 14.808 243.193 15.112 244.409 15.528L242.441 21.48C241.993 21.352 241.481 21.24 240.905 21.144C240.361 21.048 239.769 21 239.129 21C237.785 21 237.113 21.912 237.113 23.736V24.456H242.777V31.32ZM255.545 51H246.377V14.52H255.545V51ZM266.553 13.752C267.865 13.752 269.001 14.024 269.961 14.568C270.953 15.112 271.449 16.2 271.449 17.832C271.449 19.4 270.953 20.472 269.961 21.048C269.001 21.592 267.865 21.864 266.553 21.864C265.209 21.864 264.057 21.592 263.097 21.048C262.169 20.472 261.705 19.4 261.705 17.832C261.705 16.2 262.169 15.112 263.097 14.568C264.057 14.024 265.209 13.752 266.553 13.752ZM271.113 24.456V51H261.945V24.456H271.113ZM283.122 37.464L275.01 24.456H285.426L289.458 31.896L293.586 24.456H304.002L295.698 37.464L304.338 51H293.922L289.458 42.936L284.994 51H274.578L283.122 37.464Z" fill="white"/>
</svg>
